<?xml version="1.0" standalone="no"?>
<!DOCTYPE svg PUBLIC "-//W3C//DTD SVG 20010904//EN"
 "http://www.w3.org/TR/2001/REC-SVG-20010904/DTD/svg10.dtd">
<svg version="1.0" xmlns="http://www.w3.org/2000/svg"
 width="512.000000pt" height="512.000000pt" viewBox="0 0 512.000000 512.000000"
 preserveAspectRatio="xMidYMid meet">

<g transform="translate(0.000000,512.000000) scale(0.100000,-0.100000)"
fill="#000000" stroke="none">
<path d="M1287 5015 c-62 -140 -112 -294 -144 -445 -25 -113 -27 -146 -27
-345 -1 -237 13 -339 68 -519 l25 -79 -25 -30 c-74 -88 -119 -236 -111 -362
13 -195 120 -356 296 -449 l71 -37 0 -68 c0 -214 98 -492 241 -681 56 -74 157
-177 232 -235 l39 -30 -25 -129 c-14 -71 -29 -132 -34 -136 -4 -4 -191 -60
-414 -123 -223 -64 -436 -127 -473 -141 -218 -79 -435 -288 -522 -505 -13 -32
-73 -203 -133 -380 l-110 -321 2319 0 2319 0 -115 338 c-63 185 -128 365 -144
399 -95 205 -299 394 -506 469 -37 14 -250 77 -473 141 -223 63 -410 119 -414
123 -5 4 -20 65 -34 136 l-25 129 39 29 c73 56 218 211 266 284 126 192 207
441 207 638 l0 64 68 34 c174 87 286 256 299 451 9 136 -31 258 -123 377 l-44
56 0 285 c0 267 -1 290 -24 378 -46 182 -120 306 -265 449 -202 198 -426 287
-699 278 -115 -4 -156 -11 -430 -76 -166 -40 -335 -77 -375 -83 -93 -15 -240
-6 -342 21 -78 21 -257 100 -313 138 -15 10 -43 28 -63 40 l-35 21 -47 -104z
m1833 -284 c160 -55 313 -183 387 -327 64 -123 73 -171 73 -401 l0 -199 -63 7
c-35 4 -90 17 -122 29 -56 20 -75 37 -266 232 l-206 210 -89 -88 c-149 -149
-297 -248 -463 -310 -157 -59 -207 -66 -551 -73 -173 -4 -323 -11 -332 -15
-13 -6 -19 0 -27 31 -33 121 -42 193 -48 348 -4 144 -2 188 15 290 26 150 49
228 65 221 68 -28 219 -70 296 -81 203 -31 298 -20 721 80 311 74 317 75 430
71 86 -2 131 -9 180 -25z m69 -1125 c88 -51 193 -84 299 -95 50 -5 105 -17
124 -26 178 -91 181 -343 5 -430 -39 -18 -76 -27 -143 -31 l-92 -7 -4 -226
c-5 -210 -7 -232 -32 -315 -90 -297 -295 -510 -576 -598 -63 -19 -96 -23 -210
-23 -114 0 -147 4 -210 23 -281 88 -486 301 -576 598 -25 83 -27 105 -32 315
l-4 226 -92 7 c-107 7 -179 37 -221 91 -95 125 -58 294 80 368 38 20 59 22
345 28 334 7 393 14 575 74 56 18 142 53 191 78 93 47 261 154 284 182 11 13
27 1 119 -94 68 -70 129 -122 170 -145z m-859 -2034 c100 -25 380 -22 480 5
41 12 76 20 78 18 1 -1 12 -51 23 -110 l21 -107 -39 -40 c-181 -185 -485 -186
-666 0 l-38 39 11 64 c26 145 31 161 48 154 10 -4 46 -14 82 -23z m-308 -454
c109 -106 258 -184 404 -209 96 -17 272 -6 359 21 39 12 99 38 135 57 74 40
194 134 210 163 6 11 16 20 23 20 7 0 197 -52 422 -116 475 -134 524 -154 635
-260 98 -94 132 -153 196 -340 l53 -154 -269 0 -270 0 -2 163 -3 162 -147 3
-148 3 0 -166 0 -165 -1060 0 -1060 0 0 165 0 166 -147 -3 -148 -3 -3 -162 -2
-163 -270 0 -269 0 53 154 c29 85 68 180 87 211 48 79 169 193 251 234 42 21
219 77 480 151 227 66 418 119 425 119 6 1 36 -22 65 -51z"/>
</g>
</svg>
