<svg width="96" height="60" viewBox="0 0 96 60" fill="none" xmlns="http://www.w3.org/2000/svg">
<mask id="mask0_497_163" style="mask-type:alpha" maskUnits="userSpaceOnUse" x="0" y="19" width="21" height="22">
<path d="M9.15605 19.0645C7.49358 19.3008 5.9602 20.1258 4.77105 21.4234C3.57017 22.7383 2.82695 24.4312 2.62354 26.3047C2.51792 27.2887 2.56878 28.1652 2.79565 29.2051C3.46455 32.2473 5.64336 36.0285 8.94873 39.8828C9.80148 40.8754 9.92665 41 10.0792 41C10.2279 41 10.4586 40.7637 11.3661 39.6895C15.0079 35.3754 17.1515 31.3707 17.5271 28.1824C17.8126 25.7547 17.0029 23.2152 15.3756 21.4234C14.2569 20.1945 12.8839 19.4168 11.2684 19.1074C10.7716 19.0086 9.68804 18.9871 9.15605 19.0645ZM10.9163 23.5891C12.1876 23.9715 13.0834 24.9641 13.4237 26.3734C13.5293 26.816 13.5254 27.7141 13.412 28.1738C13.1812 29.1062 12.6648 29.9055 11.9685 30.3996C9.73889 31.9852 6.81686 30.3738 6.64475 27.4691C6.58216 26.4035 6.94595 25.3637 7.65005 24.5859C8.16639 24.023 8.75315 23.6793 9.46898 23.5289C9.83668 23.4516 10.5564 23.4816 10.9163 23.5891Z" fill="black"/>
</mask>
<g mask="url(#mask0_497_163)">
<rect x="-6.80469" y="0.771973" width="38.9112" height="52.1714" fill="white"/>
</g>
<path d="M35.1991 37.2C33.7325 37.2 32.4725 36.9067 31.4191 36.32C30.3791 35.72 29.5791 34.88 29.0191 33.8C28.4591 32.7067 28.1791 31.42 28.1791 29.94C28.1791 28.8333 28.3391 27.84 28.6591 26.96C28.9791 26.0667 29.4391 25.3067 30.0391 24.68C30.6391 24.04 31.3725 23.5533 32.2391 23.22C33.1191 22.8733 34.1058 22.7 35.1991 22.7C35.9325 22.7 36.6525 22.7933 37.3591 22.98C38.0658 23.1667 38.6858 23.4333 39.2191 23.78C39.4991 23.9533 39.6858 24.1667 39.7791 24.42C39.8725 24.66 39.8925 24.9 39.8391 25.14C39.7858 25.3667 39.6725 25.56 39.4991 25.72C39.3391 25.88 39.1325 25.9733 38.8791 26C38.6391 26.0133 38.3725 25.9267 38.0791 25.74C37.6658 25.4733 37.2191 25.28 36.7391 25.16C36.2591 25.04 35.7725 24.98 35.2791 24.98C34.3325 24.98 33.5325 25.1733 32.8791 25.56C32.2258 25.9467 31.7325 26.5067 31.3991 27.24C31.0658 27.9733 30.8991 28.8733 30.8991 29.94C30.8991 30.9933 31.0658 31.8933 31.3991 32.64C31.7325 33.3867 32.2258 33.9533 32.8791 34.34C33.5325 34.7267 34.3325 34.92 35.2791 34.92C35.7858 34.92 36.2858 34.86 36.7791 34.74C37.2725 34.6067 37.7391 34.4067 38.1791 34.14C38.4725 33.9667 38.7325 33.8933 38.9591 33.92C39.1991 33.9333 39.3991 34.0133 39.5591 34.16C39.7191 34.3067 39.8258 34.4933 39.8791 34.72C39.9325 34.9333 39.9191 35.16 39.8391 35.4C39.7591 35.6267 39.5991 35.8267 39.3591 36C38.8258 36.3867 38.1858 36.6867 37.4391 36.9C36.7058 37.1 35.9591 37.2 35.1991 37.2ZM43.2729 37.16C42.8595 37.16 42.5395 37.0533 42.3129 36.84C42.0995 36.6133 41.9929 36.2933 41.9929 35.88V28.32C41.9929 27.9067 42.0995 27.5933 42.3129 27.38C42.5262 27.1667 42.8262 27.06 43.2129 27.06C43.5995 27.06 43.8995 27.1667 44.1129 27.38C44.3262 27.5933 44.4329 27.9067 44.4329 28.32V29.58H44.2329C44.4195 28.78 44.7862 28.1733 45.3329 27.76C45.8795 27.3467 46.6062 27.1 47.5129 27.02C47.7929 26.9933 48.0129 27.0667 48.1729 27.24C48.3462 27.4 48.4462 27.6533 48.4729 28C48.4995 28.3333 48.4195 28.6067 48.2329 28.82C48.0595 29.02 47.7929 29.14 47.4329 29.18L46.9929 29.22C46.1795 29.3 45.5662 29.5533 45.1529 29.98C44.7395 30.3933 44.5329 30.98 44.5329 31.74V35.88C44.5329 36.2933 44.4262 36.6133 44.2129 36.84C43.9995 37.0533 43.6862 37.16 43.2729 37.16ZM54.1287 37.2C53.1153 37.2 52.2353 36.9933 51.4887 36.58C50.742 36.1667 50.162 35.58 49.7487 34.82C49.3353 34.0467 49.1287 33.14 49.1287 32.1C49.1287 31.3133 49.242 30.6133 49.4687 30C49.7087 29.3733 50.0487 28.84 50.4887 28.4C50.9287 27.9467 51.4553 27.6067 52.0687 27.38C52.682 27.14 53.3687 27.02 54.1287 27.02C55.142 27.02 56.022 27.2267 56.7687 27.64C57.5153 28.0533 58.0953 28.64 58.5087 29.4C58.922 30.16 59.1287 31.06 59.1287 32.1C59.1287 32.8867 59.0087 33.5933 58.7687 34.22C58.542 34.8467 58.2087 35.3867 57.7687 35.84C57.3287 36.28 56.802 36.62 56.1887 36.86C55.5753 37.0867 54.8887 37.2 54.1287 37.2ZM54.1287 35.3C54.622 35.3 55.0553 35.18 55.4287 34.94C55.802 34.7 56.0887 34.3467 56.2887 33.88C56.502 33.4 56.6087 32.8067 56.6087 32.1C56.6087 31.0333 56.382 30.24 55.9287 29.72C55.4753 29.1867 54.8753 28.92 54.1287 28.92C53.6353 28.92 53.202 29.04 52.8287 29.28C52.4553 29.5067 52.162 29.86 51.9487 30.34C51.7487 30.8067 51.6487 31.3933 51.6487 32.1C51.6487 33.1533 51.8753 33.9533 52.3287 34.5C52.782 35.0333 53.382 35.3 54.1287 35.3ZM64.4121 37.2C63.7054 37.2 63.0721 37.0667 62.5121 36.8C61.9654 36.52 61.5321 36.1467 61.2121 35.68C60.9054 35.2133 60.7521 34.6867 60.7521 34.1C60.7521 33.38 60.9388 32.8133 61.3121 32.4C61.6854 31.9733 62.2921 31.6667 63.1321 31.48C63.9721 31.2933 65.0988 31.2 66.5121 31.2H67.5121V32.64H66.5321C65.7054 32.64 65.0454 32.68 64.5521 32.76C64.0588 32.84 63.7054 32.98 63.4921 33.18C63.2921 33.3667 63.1921 33.6333 63.1921 33.98C63.1921 34.42 63.3454 34.78 63.6521 35.06C63.9588 35.34 64.3854 35.48 64.9321 35.48C65.3721 35.48 65.7588 35.38 66.0921 35.18C66.4388 34.9667 66.7121 34.68 66.9121 34.32C67.1121 33.96 67.2121 33.5467 67.2121 33.08V30.78C67.2121 30.1133 67.0654 29.6333 66.7721 29.34C66.4788 29.0467 65.9854 28.9 65.2921 28.9C64.9054 28.9 64.4854 28.9467 64.0321 29.04C63.5921 29.1333 63.1254 29.2933 62.6321 29.52C62.3788 29.64 62.1521 29.6733 61.9521 29.62C61.7654 29.5667 61.6188 29.46 61.5121 29.3C61.4054 29.1267 61.3521 28.94 61.3521 28.74C61.3521 28.54 61.4054 28.3467 61.5121 28.16C61.6188 27.96 61.7988 27.8133 62.0521 27.72C62.6654 27.4667 63.2521 27.2867 63.8121 27.18C64.3854 27.0733 64.9054 27.02 65.3721 27.02C66.3321 27.02 67.1188 27.1667 67.7321 27.46C68.3588 27.7533 68.8254 28.2 69.1321 28.8C69.4388 29.3867 69.5921 30.1467 69.5921 31.08V35.88C69.5921 36.2933 69.4921 36.6133 69.2921 36.84C69.0921 37.0533 68.8054 37.16 68.4321 37.16C68.0588 37.16 67.7654 37.0533 67.5521 36.84C67.3521 36.6133 67.2521 36.2933 67.2521 35.88V34.92H67.4121C67.3188 35.3867 67.1321 35.7933 66.8521 36.14C66.5854 36.4733 66.2454 36.7333 65.8321 36.92C65.4188 37.1067 64.9454 37.2 64.4121 37.2ZM76.6096 37.2C75.7429 37.2 75.0163 37.0533 74.4296 36.76C73.8563 36.4667 73.4296 36.04 73.1496 35.48C72.8696 34.9067 72.7296 34.2 72.7296 33.36V29.1H71.6896C71.3696 29.1 71.1229 29.02 70.9496 28.86C70.7763 28.6867 70.6896 28.4533 70.6896 28.16C70.6896 27.8533 70.7763 27.62 70.9496 27.46C71.1229 27.3 71.3696 27.22 71.6896 27.22H72.7296V25.4C72.7296 24.9867 72.8363 24.6733 73.0496 24.46C73.2763 24.2467 73.5896 24.14 73.9896 24.14C74.3896 24.14 74.6963 24.2467 74.9096 24.46C75.1229 24.6733 75.2296 24.9867 75.2296 25.4V27.22H77.3496C77.6696 27.22 77.9163 27.3 78.0896 27.46C78.2629 27.62 78.3496 27.8533 78.3496 28.16C78.3496 28.4533 78.2629 28.6867 78.0896 28.86C77.9163 29.02 77.6696 29.1 77.3496 29.1H75.2296V33.22C75.2296 33.86 75.3696 34.34 75.6496 34.66C75.9296 34.98 76.3829 35.14 77.0096 35.14C77.2363 35.14 77.4363 35.12 77.6096 35.08C77.7829 35.04 77.9363 35.0133 78.0696 35C78.2296 34.9867 78.3629 35.04 78.4696 35.16C78.5763 35.2667 78.6296 35.4933 78.6296 35.84C78.6296 36.1067 78.5829 36.3467 78.4896 36.56C78.4096 36.76 78.2563 36.9 78.0296 36.98C77.8563 37.0333 77.6296 37.08 77.3496 37.12C77.0696 37.1733 76.8229 37.2 76.6096 37.2ZM81.2993 37.14C80.8993 37.14 80.5926 37.02 80.3793 36.78C80.1659 36.54 80.0593 36.2067 80.0593 35.78V28.44C80.0593 28 80.1659 27.6667 80.3793 27.44C80.5926 27.2 80.8993 27.08 81.2993 27.08C81.6993 27.08 82.0059 27.2 82.2193 27.44C82.4459 27.6667 82.5593 28 82.5593 28.44V35.78C82.5593 36.2067 82.4526 36.54 82.2393 36.78C82.0259 37.02 81.7126 37.14 81.2993 37.14ZM81.2993 25.22C80.8326 25.22 80.4659 25.1067 80.1993 24.88C79.9459 24.64 79.8193 24.3133 79.8193 23.9C79.8193 23.4733 79.9459 23.1467 80.1993 22.92C80.4659 22.6933 80.8326 22.58 81.2993 22.58C81.7793 22.58 82.1459 22.6933 82.3993 22.92C82.6526 23.1467 82.7793 23.4733 82.7793 23.9C82.7793 24.3133 82.6526 24.64 82.3993 24.88C82.1459 25.1067 81.7793 25.22 81.2993 25.22ZM88.3769 37.2C87.6703 37.2 87.0369 37.0667 86.4769 36.8C85.9303 36.52 85.4969 36.1467 85.1769 35.68C84.8703 35.2133 84.7169 34.6867 84.7169 34.1C84.7169 33.38 84.9036 32.8133 85.2769 32.4C85.6503 31.9733 86.2569 31.6667 87.0969 31.48C87.9369 31.2933 89.0636 31.2 90.4769 31.2H91.4769V32.64H90.4969C89.6703 32.64 89.0103 32.68 88.5169 32.76C88.0236 32.84 87.6703 32.98 87.4569 33.18C87.2569 33.3667 87.1569 33.6333 87.1569 33.98C87.1569 34.42 87.3103 34.78 87.6169 35.06C87.9236 35.34 88.3503 35.48 88.8969 35.48C89.3369 35.48 89.7236 35.38 90.0569 35.18C90.4036 34.9667 90.6769 34.68 90.8769 34.32C91.0769 33.96 91.1769 33.5467 91.1769 33.08V30.78C91.1769 30.1133 91.0303 29.6333 90.7369 29.34C90.4436 29.0467 89.9503 28.9 89.2569 28.9C88.8703 28.9 88.4503 28.9467 87.9969 29.04C87.5569 29.1333 87.0903 29.2933 86.5969 29.52C86.3436 29.64 86.1169 29.6733 85.9169 29.62C85.7303 29.5667 85.5836 29.46 85.4769 29.3C85.3703 29.1267 85.3169 28.94 85.3169 28.74C85.3169 28.54 85.3703 28.3467 85.4769 28.16C85.5836 27.96 85.7636 27.8133 86.0169 27.72C86.6303 27.4667 87.2169 27.2867 87.7769 27.18C88.3503 27.0733 88.8703 27.02 89.3369 27.02C90.2969 27.02 91.0836 27.1667 91.6969 27.46C92.3236 27.7533 92.7903 28.2 93.0969 28.8C93.4036 29.3867 93.5569 30.1467 93.5569 31.08V35.88C93.5569 36.2933 93.4569 36.6133 93.2569 36.84C93.0569 37.0533 92.7703 37.16 92.3969 37.16C92.0236 37.16 91.7303 37.0533 91.5169 36.84C91.3169 36.6133 91.2169 36.2933 91.2169 35.88V34.92H91.3769C91.2836 35.3867 91.0969 35.7933 90.8169 36.14C90.5503 36.4733 90.2103 36.7333 89.7969 36.92C89.3836 37.1067 88.9103 37.2 88.3769 37.2Z" fill="white"/>
</svg>
