<?xml version="1.0" standalone="no"?>
<!DOCTYPE svg PUBLIC "-//W3C//DTD SVG 20010904//EN"
 "http://www.w3.org/TR/2001/REC-SVG-20010904/DTD/svg10.dtd">
<svg version="1.0" xmlns="http://www.w3.org/2000/svg"
 width="512.000000pt" height="512.000000pt" viewBox="0 0 512.000000 512.000000"
 preserveAspectRatio="xMidYMid meet">

<g transform="translate(0.000000,512.000000) scale(0.100000,-0.100000)"
fill="#000000" stroke="none">
<path d="M2355 4747 c-110 -89 -670 -542 -1245 -1007 -575 -464 -1060 -856
-1077 -871 l-32 -28 93 -115 94 -116 143 115 c109 87 145 111 147 98 1 -10 56
-520 122 -1133 66 -613 122 -1130 124 -1147 l5 -33 -325 0 -324 0 0 -150 0
-150 2475 0 2476 0 -3 147 -3 148 -317 3 -317 2 5 33 c2 17 58 534 124 1147
66 613 121 1123 122 1133 2 14 36 -8 146 -97 l144 -116 95 117 c77 95 92 119
80 128 -8 5 -582 469 -1276 1030 -694 561 -1265 1021 -1269 1022 -4 1 -97 -71
-207 -160z m1112 -953 c864 -700 898 -728 895 -758 -5 -65 -262 -2453 -268
-2488 l-6 -38 -283 0 -284 0 -3 653 -4 652 -26 95 c-33 122 -66 194 -132 294
-126 189 -310 324 -533 393 -80 24 -103 27 -253 27 -142 1 -177 -2 -249 -22
-331 -90 -579 -335 -683 -673 -22 -73 -22 -80 -26 -746 l-3 -673 -289 0 c-160
0 -290 1 -290 3 -4 24 -277 2552 -276 2553 0 1 405 328 900 728 494 399 902
726 906 726 5 0 413 -327 907 -726z m-752 -1479 c217 -55 395 -220 471 -436
l29 -84 3 -642 3 -643 -655 0 -656 0 0 633 c0 691 0 686 59 812 82 175 239
307 423 355 91 24 241 26 323 5z"/>
<path d="M2040 3300 l0 -150 523 2 522 3 3 148 3 147 -526 0 -525 0 0 -150z"/>
</g>
</svg>
