<?xml version="1.0" standalone="no"?>
<!DOCTYPE svg PUBLIC "-//W3C//DTD SVG 20010904//EN"
 "http://www.w3.org/TR/2001/REC-SVG-20010904/DTD/svg10.dtd">
<svg version="1.0" xmlns="http://www.w3.org/2000/svg"
 width="512.000000pt" height="512.000000pt" viewBox="0 0 512.000000 512.000000"
 preserveAspectRatio="xMidYMid meet">

<g transform="translate(0.000000,512.000000) scale(0.100000,-0.100000)"
fill="#000000" stroke="none">
<path d="M546 4769 c-200 -197 -376 -379 -398 -412 -247 -363 -179 -913 197
-1592 284 -514 692 -1027 1215 -1529 675 -649 1365 -1074 1952 -1202 169 -37
408 -40 538 -7 243 62 300 104 721 532 186 189 339 349 339 355 0 6 -296 307
-658 669 l-657 657 -370 -370 c-203 -203 -374 -370 -378 -370 -25 0 -354 243
-527 389 -287 243 -746 741 -979 1065 l-64 88 377 377 376 376 -663 663 -664
664 -357 -353z m809 -529 l449 -449 -354 -349 -355 -348 57 -96 c173 -290 496
-678 892 -1073 230 -229 400 -373 646 -546 153 -108 384 -259 397 -259 4 0
164 156 355 347 l348 348 450 -450 c248 -247 450 -452 450 -455 -1 -17 -483
-491 -523 -514 -187 -109 -390 -122 -686 -46 -337 88 -785 331 -1186 644 -772
603 -1487 1451 -1804 2141 -194 424 -239 761 -131 992 29 61 56 92 283 316
138 136 253 247 256 247 3 0 208 -202 456 -450z"/>
</g>
</svg>
